<svg width="55" height="54" viewBox="0 0 55 54" fill="none" xmlns="http://www.w3.org/2000/svg">
<path d="M2.46166 27.0296C11.5874 26.9228 27.3415 21.5353 27.3415 0C27.3415 9 32.8732 27 55 27C45.7805 27 27.3415 32.4 27.3415 54C27.3415 45.2118 22.3182 27.8422 2.46166 27.0296C1.95251 27.0355 1.464 27.025 1 27C1.49593 27 1.9831 27.01 2.46166 27.0296Z" fill="#121212"/>
<path d="M27.3415 0C27.3415 22.7368 9.78049 27.4737 1 27C22.0732 27 27.3415 45 27.3415 54C27.3415 32.4 45.7805 27 55 27C32.8732 27 27.3415 9 27.3415 0Z" stroke="#121212" stroke-width="2.84211"/>
</svg>
